<?xml version="1.0" standalone="no"?>
<!DOCTYPE svg PUBLIC "-//W3C//DTD SVG 20010904//EN"
 "http://www.w3.org/TR/2001/REC-SVG-20010904/DTD/svg10.dtd">
<svg version="1.0" xmlns="http://www.w3.org/2000/svg"
 width="500.000000pt" height="500.000000pt" viewBox="0 0 500.000000 500.000000"
 preserveAspectRatio="xMidYMid meet">

<g transform="translate(0.000000,500.000000) scale(0.100000,-0.100000)"
fill="#000000" stroke="none">
<path d="M2340 2470 l0 -60 60 0 60 0 0 60 0 60 -60 0 -60 0 0 -60z"/>
<path d="M1770 2060 l0 -60 65 0 65 0 0 60 0 60 -65 0 -65 0 0 -60z"/>
<path d="M2340 2060 l0 -60 60 0 60 0 0 60 0 60 -60 0 -60 0 0 -60z"/>
<path d="M2920 1930 l0 -60 60 0 60 0 0 60 0 60 -60 0 -60 0 0 -60z"/>
<path d="M1770 1755 l0 -65 65 0 65 0 0 65 0 65 -65 0 -65 0 0 -65z"/>
<path d="M2920 1630 l0 -60 60 0 60 0 0 60 0 60 -60 0 -60 0 0 -60z"/>
<path d="M1496 1253 c15 -27 31 -52 36 -57 4 -6 9 -35 10 -65 l1 -56 6 60 c4
40 16 76 35 108 16 26 26 50 23 53 -3 3 -15 -11 -26 -33 -37 -70 -36 -69 -67
-14 -16 28 -33 51 -37 51 -4 0 4 -21 19 -47z"/>
<path d="M1674 1190 c0 -63 1 -89 3 -57 2 31 2 83 0 115 -2 31 -3 5 -3 -58z"/>
<path d="M1810 1258 c0 -33 -3 -39 -12 -30 -17 17 -54 15 -72 -4 -23 -23 -21
-106 2 -127 21 -19 58 -22 68 -6 4 8 9 7 15 -2 5 -8 9 32 9 99 0 61 -2 112 -5
112 -3 0 -5 -19 -5 -42z m-12 -40 c15 -15 16 -82 2 -109 -25 -45 -80 -10 -80
51 0 57 45 91 78 58z"/>
<path d="M2056 1193 c-20 -59 -34 -109 -31 -111 2 -3 9 7 14 22 9 23 16 26 61
26 45 0 52 -3 61 -26 5 -15 12 -25 14 -22 7 7 -66 218 -75 218 -5 0 -24 -48
-44 -107z m72 10 l21 -63 -49 0 -49 0 15 48 c8 26 17 57 20 70 9 31 17 19 42
-55z"/>
<path d="M2561 1263 c-1 -18 -7 -23 -30 -23 -17 0 -33 -5 -37 -11 -4 -8 -9 -7
-15 2 -5 9 -8 -20 -7 -71 2 -79 2 -81 5 -20 5 73 9 81 52 86 l31 4 0 -63 c0
-63 11 -87 39 -87 11 0 9 5 -7 16 -18 13 -22 25 -22 74 0 53 2 59 23 63 22 4
22 4 0 6 -14 1 -23 9 -26 24 l-4 22 -2 -22z"/>
<path d="M1633 1160 c0 -47 2 -66 4 -42 2 23 2 61 0 85 -2 23 -4 4 -4 -43z"/>
<path d="M1853 1160 c0 -47 2 -66 4 -42 2 23 2 61 0 85 -2 23 -4 4 -4 -43z"/>
<path d="M1923 1231 l49 -6 -51 -67 c-28 -37 -51 -70 -51 -73 0 -3 28 -4 63
-3 l62 1 -53 6 -54 6 51 67 c28 37 51 70 51 73 0 3 -26 4 -57 3 l-58 -1 48 -6z"/>
<path d="M2197 1233 c-11 -11 -8 -213 3 -213 6 0 10 19 10 42 0 33 3 39 12 30
7 -7 22 -12 34 -12 36 0 54 26 54 80 0 31 -6 54 -16 64 -18 18 -60 21 -70 5
-5 -8 -8 -8 -13 0 -4 6 -10 8 -14 4z m87 -19 c9 -9 16 -32 16 -54 0 -41 -20
-70 -49 -70 -28 0 -41 21 -41 70 0 66 36 92 74 54z"/>
<path d="M2342 1228 c-19 -19 -14 -33 6 -15 34 31 82 16 82 -25 0 -14 -8 -18
-40 -18 -31 0 -43 -5 -55 -24 -8 -13 -13 -31 -9 -40 8 -22 50 -31 79 -18 18 8
25 8 29 -1 2 -7 5 20 5 59 1 42 -4 75 -11 82 -16 16 -70 16 -86 0z m88 -93 c0
-29 -32 -49 -66 -41 -17 5 -24 13 -24 30 0 27 11 34 58 35 28 1 32 -2 32 -24z"/>
<path d="M2630 1157 c0 -50 4 -76 10 -72 6 3 10 35 10 70 0 61 2 65 25 71 41
10 55 -10 57 -85 l1 -66 6 65 c7 76 14 90 46 90 32 0 39 -14 46 -90 l6 -65 1
63 c1 35 -3 72 -8 83 -12 21 -59 26 -78 7 -8 -8 -15 -8 -25 0 -8 7 -32 11 -55
9 l-42 -2 0 -78z"/>
<path d="M2883 1233 c-7 -2 -13 -12 -13 -21 1 -15 2 -15 11 1 20 34 79 15 79
-25 0 -14 -8 -18 -38 -18 -21 0 -43 -5 -50 -12 -17 -17 -15 -65 4 -72 25 -10
62 -7 70 5 4 8 9 7 15 -2 5 -9 9 13 9 57 0 41 -5 75 -12 82 -12 12 -52 15 -75
5z m77 -98 c0 -29 -32 -49 -66 -41 -49 13 -23 66 33 66 28 0 33 -3 33 -25z"/>
<path d="M3002 1160 c2 -79 2 -80 5 -20 4 71 14 90 49 90 31 0 38 -14 45 -90
l6 -65 1 71 c1 43 -3 75 -10 82 -15 15 -65 16 -74 1 -4 -8 -9 -7 -15 2 -5 9
-8 -20 -7 -71z"/>
</g>
</svg>
